<svg xmlns="http://www.w3.org/2000/svg" viewBox="0 0 142.02 142.02"><defs><style>.cls-1{fill:#be1e2d;}</style></defs><g id="Layer_2" data-name="Layer 2"><g id="Layer_1-2" data-name="Layer 1"><path d="M79.83,137l-3.21,1a12.94,12.94,0,0,1-2.13-6.14c-.22-3.48-2.35-8-6.19-11.87a19.76,19.76,0,0,1-4.92-8.39s-.85,2.25-2.35,5.72L57,115.68a49.22,49.22,0,0,1,1.71-6.13c1.5-4.71-.42-13.1-.42-13.1s1.07,5.52-1.5,10l-3.21-.62a32.13,32.13,0,0,0,0,8.59l-4.28.41s-.85-1.64-1.06-8.8,1.94-18.82,1.94-18.82a23.08,23.08,0,0,0-2.79,6.13c-1.07,3.69-3.43,12.48-3.43,18.42s2.55,24.14,2.55,24.14a7,7,0,0,1-2.2.86A70.87,70.87,0,0,0,71,142,72.49,72.49,0,0,0,81,141.3C79.39,139.76,79.83,137,79.83,137Z"/><path class="cls-1" d="M81.36,78.46a32.91,32.91,0,0,1-11.33,1c-7.05-.42-15.17-4.31-15.17-4.31A29.75,29.75,0,0,0,72,81.93C82,82.35,81.36,78.46,81.36,78.46Z"/><path d="M29.31,85.05C28,86.29,25,91.67,24.17,93.54c0,0-2.46-1.41-7.16-1,0,0,9.2-14.12,19.89-19,0,0,3.85,3.89,13.25,5.53a29.43,29.43,0,0,1-10-5.94c-5.13-4.5-6.19-7.78-6.19-13.51s10.7-14.92,10.7-14.92a38.09,38.09,0,0,0-11.55,7l-8.33-6.76S28.8,41,29.23,36.48a10.85,10.85,0,0,1-4.49,4.91L23,39.75s-2.14,1.43-3.42,0,3-6.75,6-9,2.78-1,3.42,1,4.06,3.07,4.06,3.07L35.22,32a18.55,18.55,0,0,1,4.49,5.74c1.49,3.27,6.41,6.14,6.41,6.14A19.29,19.29,0,0,1,56.59,42c6,.62,7,3.49,7,3.49s-.64,2-1.93,8.59S61.27,69,61.27,69a92.87,92.87,0,0,1,3-18,16.17,16.17,0,0,0,3.2,4.71S65.35,50.22,66,45.3c.21-1.62,0-3.27,1.92-5.72s7.49-4.91,9.63-4.91a10,10,0,0,1,7,3.08c2.14,2.25,3.63,7.77,3.63,9.62s-.88,2.1-3,3.53-2.31,2-4.26,2.6S78.6,57,78.6,57s9.2-7.77,24.59-9.4a38.85,38.85,0,0,0-12.83.81l-.21-5.73L92.51,40c14.26-6.57,18.26-26.22,18.26-26.22.75,0,1.45-.07,2.15-.08A71,71,0,0,0,27.39,127c-.27-4.88-1.15-12.08-1.41-20.77C25.72,97.85,28.2,88.55,29.31,85.05Z"/><path d="M64.69,71.29c5.88-.71,13.59-7.46,13.59-7.46l-3.53-.92s-2.36,1.84-5.35,4.29-13.26,4.49-13.26,4.49A64.07,64.07,0,0,0,64.69,71.29Z"/><path d="M46.1,60.84l4.49,5.73a15.67,15.67,0,0,1-1.5-5.73,8.16,8.16,0,0,1,1.72-4.7S47,57.57,46.1,60.84Z"/><path class="cls-1" d="M142,71.05a71,71,0,0,1-45.76,66.32,40,40,0,0,0-4-1.2l4.7-1.22s-9.18-15.77-13-21.71A71.06,71.06,0,0,0,75.79,103l2.56-1.83c-5.55-2.26-6.84-5.74-6.84-5.74-10.68,0-16.87-9-16.87-9a44.62,44.62,0,0,0,23.93,7C92.26,93.21,94,91.57,94,91.57S92,83,91.62,80.31c-.64-4.91,6-9.41,6-9.41S93.27,76,93.48,80.47s2.41,13.14,8.18,12.75,11.55-4.1,11.56-7.37-2.14-11.25-2.14-11.25a11.61,11.61,0,0,1,4.06,7s6-12.28,4.5-15.55-5.76-6.55-12.61-6.56c-15.43,0-23,5.66-24.52,6.9,15.65-14,30.28-8.8,31.85-8.18-.75-.33-4.38-2.32-4.76-10.37,0,0,9.49-11.22,14.4-24A70.7,70.7,0,0,1,142,71.05Z"/></g></g></svg>